# xmcd CD database file
#
# Track frame offsets:
#	150
#	26243
#	51000
#	78151
#	93741
#	107867
#	120715
#	134594
#	146499
#	160535
#	176950
#	197377
#	213166
#	226733
#	239523
#	252647
#	266892
#	281676
#	296544
#
# Disc length: 4114 seconds
#
# Revision: 1
# Processed by: cddbd v1.5.2PL0 Copyright (c) Steve Scherf et al.
# Submitted via: CDex 1.70beta2
#
DISCID=1e101013
DTITLE=Various Artist - Jazz Roads CD371 - Bebop - The Boppers In Europe Vol.2 (1949-52)
DYEAR=1900
DGENRE=Jazz
TTITLE0=Max Roach Quintet - Prince Albert Pt. 1 and 2
TTITLE1=Max Roach Quintet - Baby Sis Pt. 1& 2
TTITLE2=Max Roach Quintet - Tomorrow Pt. 1 and 2
TTITLE3=Max Roach Quintet - Maximum
TTITLE4=James Moody Quintet - More Than You Know
TTITLE5=James Moody Quintet - Deep Purple
TTITLE6=James Moody Quintet - I Cover The Waterfront
TTITLE7=James Moody Quintet - Moody's Mode
TTITLE8=James Moody Quintet - That's My Desire
TTITLE9=James Moody Quintet - Bootsie
TTITLE10=James Moody Quintet - Lover Come Back To Me
TTITLE11=James Moody Quintet - This Is Always
TTITLE12=Dizzy Gillespie Quintet - Afro Paris
TTITLE13=Dizzy Gillespie Quintet - Afro Paris
TTITLE14=Dizzy Gillespie Quintet - Hurry Home
TTITLE15=Dizzy Gillespie Quintet - Hurry Home
TTITLE16=Dizzy Gillespie Quintet - Say Eh!
TTITLE17=Dizzy Gillespie Quintet - Say Eh!
TTITLE18=Dizzy Gillespie Quintet - I Cover The Waterfront
EXTD=
EXTT0=
EXTT1=
EXTT2=
EXTT3=
EXTT4=
EXTT5=
EXTT6=
EXTT7=
EXTT8=
EXTT9=
EXTT10=
EXTT11=
EXTT12=
EXTT13=
EXTT14=
EXTT15=
EXTT16=
EXTT17=
EXTT18=
PLAYORDER=
